<svg xmlns="http://www.w3.org/2000/svg" viewBox="0 0 200 40" fill="none">
  <g transform="translate(0.2 1.2) scale(0.19)">
    <path d="M 169.282 140 A 80 80 0 1 1 169.282 60" stroke="#7ab995" stroke-width="18" stroke-linecap="butt" fill="none"/>
    <path d="M 169.28,60 L 171.43,60.63 L 173.49,61.25 L 175.39,61.88 L 177.06,62.5 L 178.43,63.13 L 179.44,63.75 L 180.07,64.38 L 180.28,65 L 180.07,65.62 L 179.44,66.25 L 178.43,66.88 L 177.06,67.5 L 175.39,68.12 L 173.49,68.75 L 171.43,69.38 L 169.28,70 L 167.14,70.62 L 165.07,71.25 L 163.17,71.88 L 161.5,72.5 L 160.14,73.12 L 159.12,73.75 L 158.49,74.38 L 158.28,75 L 158.49,75.62 L 159.12,76.25 L 160.14,76.88 L 161.5,77.5 L 163.17,78.12 L 165.07,78.75 L 167.14,79.38 L 169.28,80 L 171.43,80.62 L 173.49,81.25 L 175.39,81.88 L 177.06,82.5 L 178.43,83.12 L 179.44,83.75 L 180.07,84.38 L 180.28,85 L 180.07,85.62 L 179.44,86.25 L 178.43,86.88 L 177.06,87.5 L 175.39,88.12 L 173.49,88.75 L 171.43,89.38 L 169.28,90 L 167.14,90.62 L 165.07,91.25 L 163.17,91.88 L 161.5,92.5 L 160.14,93.12 L 159.12,93.75 L 158.49,94.38 L 158.28,95 L 158.49,95.62 L 159.12,96.25 L 160.14,96.88 L 161.5,97.5 L 163.17,98.12 L 165.07,98.75 L 167.14,99.38 L 169.28,100 L 171.43,100.62 L 173.49,101.25 L 175.39,101.88 L 177.06,102.5 L 178.43,103.12 L 179.44,103.75 L 180.07,104.38 L 180.28,105 L 180.07,105.62 L 179.44,106.25 L 178.43,106.88 L 177.06,107.5 L 175.39,108.12 L 173.49,108.75 L 171.43,109.38 L 169.28,110 L 167.14,110.62 L 165.07,111.25 L 163.17,111.88 L 161.5,112.5 L 160.14,113.12 L 159.12,113.75 L 158.49,114.38 L 158.28,115 L 158.49,115.62 L 159.12,116.25 L 160.14,116.88 L 161.5,117.5 L 163.17,118.12 L 165.07,118.75 L 167.14,119.38 L 169.28,120 L 171.43,120.62 L 173.49,121.25 L 175.39,121.88 L 177.06,122.5 L 178.43,123.12 L 179.44,123.75 L 180.07,124.38 L 180.28,125 L 180.07,125.62 L 179.44,126.25 L 178.43,126.88 L 177.06,127.5 L 175.39,128.12 L 173.49,128.75 L 171.43,129.38 L 169.28,130 L 167.14,130.62 L 165.07,131.25 L 163.17,131.88 L 161.5,132.5 L 160.14,133.12 L 159.12,133.75 L 158.49,134.38 L 158.28,135 L 158.49,135.62 L 159.12,136.25 L 160.14,136.88 L 161.5,137.5 L 163.17,138.12 L 165.07,138.75 L 167.14,139.38 L 169.28,140" stroke="#7ab995" stroke-width="10" stroke-linejoin="round" fill="none"/>
  </g>
  <text x="40" y="27" font-family="system-ui, -apple-system, sans-serif" font-size="18" font-weight="600" fill="#FAFAFA">OpenCompress</text>
</svg>
